<svg width="1426" height="939" viewBox="0 0 1426 939" fill="none" xmlns="http://www.w3.org/2000/svg">
<path d="M720.576 51.8456L504.893 243.577C469.02 275.369 462.113 332.594 489.296 373.435C518.039 416.966 573.965 425.525 612.512 392.51L833.764 203.714C849.361 190.508 871.643 193.443 883.897 210.562C896.152 227.681 893.255 252.136 877.659 265.586L831.091 305.204L1225.91 704.318H1319.05C1378.1 704.318 1426 651.738 1426 586.931V273.901C1426 209.094 1378.1 156.515 1319.05 156.515H1139.24L1130.55 150.401L968.789 36.6832C934.698 12.7168 894.815 0 854.263 0C805.69 0 758.454 18.3416 720.576 51.8456ZM771.377 356.072L656.183 454.383C585.997 514.543 484.172 498.892 431.588 419.656C382.123 345.067 394.601 240.886 459.885 182.927L645.265 18.3416C619.419 6.35842 591.567 0.244551 563.27 0.244551C521.381 -3.744e-06 480.607 13.6951 445.625 39.1288L285.2 156.515H106.95C47.9047 156.515 0 209.094 0 273.901V586.931C0 651.738 47.9047 704.318 106.95 704.318H348.033L551.684 908.276C595.355 952.052 662.867 948.628 702.751 900.695C715.005 885.777 723.249 868.414 727.483 850.317L765.361 888.467C808.81 932.243 876.544 929.064 916.428 881.375C926.454 869.392 933.807 855.453 938.486 841.024C981.712 872.816 1040.53 866.213 1076.85 822.682C1116.74 774.994 1113.84 700.649 1070.39 656.874L771.377 356.072Z" fill="white"/>
</svg>
